<svg id="svg" fill="#000000" stroke="#000000" width="200px" height="200px" version="1.1" viewBox="144 144 512 512" xmlns="http://www.w3.org/2000/svg">
    <g id="IconSvg_bgCarrier" stroke-width="0"></g>
    <g id="IconSvg_tracerCarrier" stroke-linecap="round" stroke-linejoin="round" stroke="#CCCCCC"></g>
     <g id="IconSvg_iconCarrier">
      <path xmlns="http://www.w3.org/2000/svg" d="m369.77 173.29c-16.574 0-30.23 13.656-30.23 30.23v25.664c-22.137 7.8398-41.82 20.199-59.039 35.426l-22.984-12.754c-14.504-8.043-33.059-2.6758-41.094 11.809l-29.285 52.898c-8.0039 14.43-2.875 33.035 11.652 41.094l22.828 12.594c-1.6055 9.7109-2.9883 19.598-2.9883 29.754 0 10.145 1.3906 19.895 2.9922 29.598l-22.828 12.754c-14.527 8.0547-19.652 26.66-11.652 41.094l29.285 52.898c8.0352 14.484 26.59 19.852 41.094 11.809l22.984-12.754c17.203 15.195 36.934 27.441 59.039 35.266v25.82c0 16.574 13.656 30.23 30.23 30.23h60.457c16.574 0 30.23-13.656 30.23-30.23v-25.82c22.105-7.8281 41.836-20.07 59.039-35.266l22.984 12.754c14.504 8.043 33.059 2.6758 41.094-11.809l29.285-52.898c8.0039-14.43 2.875-33.035-11.652-41.094l-22.828-12.754c1.6016-9.707 2.9922-19.457 2.9922-29.598 0-10.156-1.3867-20.043-2.9922-29.758l22.828-12.594c14.527-8.0547 19.652-26.66 11.652-41.094l-29.285-52.898c-8.0352-14.484-26.59-19.852-41.094-11.809l-22.984 12.754c-17.223-15.227-36.91-27.59-59.043-35.426v-25.664c0-16.574-13.656-30.23-30.23-30.23h-60.457zm0 20.152h60.457c5.7578 0 10.078 4.3203 10.078 10.078v32.746c0.007812 4.4062 2.875 8.2969 7.082 9.6055 24.418 7.4922 46.41 20.652 64.395 37.941 3.1719 3.043 7.9492 3.6797 11.809 1.5742l28.652-15.902c5.0234-2.7852 10.902-1.1055 13.699 3.9375l29.285 52.898c2.8281 5.0977 1.2227 10.922-3.7773 13.695l-28.652 15.902h-0.003906c-3.8828 2.125-5.9258 6.5312-5.0391 10.863 2.2461 10.711 3.4648 21.801 3.4648 33.219 0 11.418-1.2188 22.352-3.4648 33.062v0.003906c-0.96484 4.3828 1.0898 8.8789 5.0391 11.02l28.652 15.902c5 2.7734 6.6055 8.6016 3.7773 13.699l-29.285 52.898c-2.7969 5.043-8.6719 6.7227-13.699 3.9375l-28.652-15.902h0.003906c-3.8242-2.1484-8.6016-1.5781-11.809 1.4141-17.98 17.293-39.977 30.449-64.395 37.945-4.2617 1.3242-7.1445 5.2969-7.082 9.7617v32.746c0 5.7578-4.3203 10.078-10.078 10.078h-60.457c-5.7578 0-10.078-4.3203-10.078-10.078v-32.746h0.003906c0.058594-4.4648-2.8242-8.4375-7.0859-9.7617-24.418-7.4922-46.41-20.652-64.395-37.945-3.207-2.9922-7.9805-3.5625-11.809-1.4141l-28.652 15.902c-5.0234 2.7852-10.902 1.1055-13.699-3.9375l-29.285-52.898c-2.8281-5.0977-1.2227-10.922 3.7773-13.699l28.652-15.902h0.003906c3.9492-2.1406 6.0039-6.6367 5.0391-11.02-2.2422-10.715-3.4609-21.645-3.4609-33.062s1.2188-22.508 3.4648-33.219l-0.003906-0.003906c0.88672-4.332-1.1562-8.7383-5.0391-10.863l-28.652-15.902c-5-2.7734-6.6055-8.6016-3.7773-13.695l29.285-52.898c2.7969-5.043 8.6719-6.7227 13.699-3.9375l28.652 15.902h-0.003906c3.8594 2.1055 8.6367 1.4688 11.809-1.5742 17.98-17.289 39.977-30.449 64.395-37.941v-0.003907c4.207-1.3086 7.0742-5.1953 7.0859-9.6016v-32.746c0-5.7578 4.3203-10.078 10.078-10.078zm30.23 100.76c-58.312 0-105.8 47.488-105.8 105.8s47.488 105.8 105.8 105.8 105.8-47.488 105.8-105.8-47.488-105.8-105.8-105.8zm0 20.152c47.422 0 85.648 38.227 85.648 85.648s-38.227 85.648-85.648 85.648-85.648-38.227-85.648-85.648 38.227-85.648 85.648-85.648z"></path>

      </g>
      </svg>